<svg width="94" height="118" viewBox="0 0 94 118" fill="none" xmlns="http://www.w3.org/2000/svg">
<path d="M81.9997 24.2186H70.333C70.333 11.3269 59.8913 0.885254 46.9997 0.885254C34.108 0.885254 23.6663 11.3269 23.6663 24.2186H11.9997C5.58301 24.2186 0.333008 29.4686 0.333008 35.8853V105.885C0.333008 112.302 5.58301 117.552 11.9997 117.552H81.9997C88.4163 117.552 93.6663 112.302 93.6663 105.885V35.8853C93.6663 29.4686 88.4163 24.2186 81.9997 24.2186ZM35.333 47.5519C35.333 50.7603 32.708 53.3853 29.4997 53.3853C26.2913 53.3853 23.6663 50.7603 23.6663 47.5519V35.8853H35.333V47.5519ZM46.9997 12.5519C53.4163 12.5519 58.6663 17.8019 58.6663 24.2186H35.333C35.333 17.8019 40.583 12.5519 46.9997 12.5519ZM70.333 47.5519C70.333 50.7603 67.708 53.3853 64.4997 53.3853C61.2913 53.3853 58.6663 50.7603 58.6663 47.5519V35.8853H70.333V47.5519Z" fill="#FFA629"/>
</svg>
