<svg width="94" height="118" viewBox="0 0 94 118" fill="none" xmlns="http://www.w3.org/2000/svg">
<path d="M11.9997 117.552C8.79135 117.552 6.04385 116.409 3.75718 114.122C1.47052 111.835 0.329129 109.09 0.333018 105.885V12.5519C0.333018 9.3436 1.47635 6.5961 3.76302 4.30943C6.04968 2.02276 8.79524 0.881375 11.9997 0.885264H81.9997C85.208 0.885264 87.9555 2.0286 90.2422 4.31526C92.5289 6.60193 93.6702 9.34749 93.6664 12.5519V105.885C93.6664 109.094 92.523 111.841 90.2364 114.128C87.9497 116.414 85.2041 117.556 81.9997 117.552H11.9997ZM11.9997 105.885H81.9997V12.5519H70.333V48.2811C70.333 49.4478 69.8469 50.2994 68.8747 50.8361C67.9025 51.3728 66.9302 51.3475 65.958 50.7603L55.7497 44.6353L45.5414 50.7603C44.5691 51.3436 43.5969 51.3689 42.6247 50.8361C41.6525 50.3033 41.1664 49.4517 41.1664 48.2811V12.5519H11.9997V105.885Z" fill="#FB8C00"/>
</svg>
