<svg width="56" height="106" viewBox="0 0 56 106" fill="none" xmlns="http://www.w3.org/2000/svg">
<path d="M22.3138 105.719V93.1771C17.161 92.0104 12.7121 89.7743 8.96714 86.4688C5.22214 83.1632 2.47658 78.4965 0.730469 72.4688L11.5221 68.0938C12.9805 72.7604 15.1446 76.309 18.0146 78.7396C20.8846 81.1701 24.651 82.3854 29.3138 82.3854C33.2999 82.3854 36.6794 81.4851 39.4521 79.6846C42.2249 77.884 43.6094 75.0899 43.6055 71.3021C43.6055 67.8993 42.536 65.2024 40.3971 63.2113C38.2582 61.2201 33.2999 58.9588 25.5221 56.4271C17.161 53.8021 11.4249 50.6657 8.3138 47.0179C5.20269 43.3701 3.64714 38.9232 3.64714 33.6771C3.64714 27.3576 5.6888 22.4479 9.77214 18.9479C13.8555 15.4479 18.036 13.4549 22.3138 12.9688V0.71875H33.9805V12.9688C38.8416 13.7465 42.853 15.5218 46.0146 18.2946C49.1763 21.0674 51.4844 24.4449 52.9388 28.4271L42.1471 33.0938C40.9805 29.9826 39.3277 27.6493 37.1888 26.0938C35.0499 24.5382 32.1332 23.7604 28.4388 23.7604C24.161 23.7604 20.9041 24.7093 18.668 26.6071C16.4319 28.5049 15.3138 30.8615 15.3138 33.6771C15.3138 36.8854 16.7721 39.4132 19.6888 41.2604C22.6055 43.1076 27.661 45.0521 34.8555 47.0938C41.5638 49.0382 46.6446 52.126 50.098 56.3571C53.5513 60.5882 55.276 65.4726 55.2721 71.0104C55.2721 77.9132 53.2305 83.1632 49.1471 86.7604C45.0638 90.3576 40.0082 92.5938 33.9805 93.4688V105.719H22.3138Z" fill="#FB8C00"/>
</svg>
