<svg width="131" height="41" viewBox="0 0 131 41" fill="none" xmlns="http://www.w3.org/2000/svg">
<path d="M54.3774 17.1605V20.1425H59.1864V22.9145H54.3774V26.1485H59.8164V29.0255H50.7864V14.2835H59.8164V17.1605H54.3774ZM61.4338 23.1455C61.4338 21.9415 61.6578 20.8845 62.1058 19.9745C62.5678 19.0645 63.1908 18.3645 63.9748 17.8745C64.7588 17.3845 65.6338 17.1395 66.5998 17.1395C67.3698 17.1395 68.0698 17.3005 68.6998 17.6225C69.3438 17.9445 69.8478 18.3785 70.2118 18.9245V13.4855H73.8028V29.0255H70.2118V27.3455C69.8758 27.9055 69.3928 28.3535 68.7628 28.6895C68.1468 29.0255 67.4258 29.1935 66.5998 29.1935C65.6338 29.1935 64.7588 28.9485 63.9748 28.4585C63.1908 27.9545 62.5678 27.2475 62.1058 26.3375C61.6578 25.4135 61.4338 24.3495 61.4338 23.1455ZM70.2118 23.1665C70.2118 22.2705 69.9598 21.5635 69.4558 21.0455C68.9658 20.5275 68.3638 20.2685 67.6498 20.2685C66.9358 20.2685 66.3268 20.5275 65.8228 21.0455C65.3328 21.5495 65.0878 22.2495 65.0878 23.1455C65.0878 24.0415 65.3328 24.7555 65.8228 25.2875C66.3268 25.8055 66.9358 26.0645 67.6498 26.0645C68.3638 26.0645 68.9658 25.8055 69.4558 25.2875C69.9598 24.7695 70.2118 24.0625 70.2118 23.1665ZM87.9717 17.3075V29.0255H84.3807V27.4295C84.0167 27.9475 83.5197 28.3675 82.8897 28.6895C82.2737 28.9975 81.5877 29.1515 80.8317 29.1515C79.9357 29.1515 79.1447 28.9555 78.4587 28.5635C77.7727 28.1575 77.2407 27.5765 76.8627 26.8205C76.4847 26.0645 76.2957 25.1755 76.2957 24.1535V17.3075H79.8657V23.6705C79.8657 24.4545 80.0687 25.0635 80.4747 25.4975C80.8807 25.9315 81.4267 26.1485 82.1127 26.1485C82.8127 26.1485 83.3657 25.9315 83.7717 25.4975C84.1777 25.0635 84.3807 24.4545 84.3807 23.6705V17.3075H87.9717ZM99.7281 26.4215H94.2261L93.3441 29.0255H89.5851L94.9191 14.2835H99.0771L104.411 29.0255H100.61L99.7281 26.4215ZM98.8041 23.6495L96.9771 18.2525L95.1711 23.6495H98.8041ZM109.625 19.2605C110.045 18.6165 110.57 18.1125 111.2 17.7485C111.83 17.3705 112.53 17.1815 113.3 17.1815V20.9825H112.313C111.417 20.9825 110.745 21.1785 110.297 21.5705C109.849 21.9485 109.625 22.6205 109.625 23.5865V29.0255H106.034V17.3075H109.625V19.2605ZM121.548 25.9805V29.0255H119.721C118.419 29.0255 117.404 28.7105 116.676 28.0805C115.948 27.4365 115.584 26.3935 115.584 24.9515V20.2895H114.156V17.3075H115.584V14.4515H119.175V17.3075H121.527V20.2895H119.175V24.9935C119.175 25.3435 119.259 25.5955 119.427 25.7495C119.595 25.9035 119.875 25.9805 120.267 25.9805H121.548Z" fill="black"/>
<path d="M17.3595 16.9911H8.68085C6.96407 16.9913 5.28578 16.4932 3.85823 15.5598C2.43069 14.6264 1.31801 13.2995 0.660923 11.7471C0.00383605 10.1947 -0.168146 8.48648 0.166728 6.83841C0.501602 5.19034 1.32829 3.67648 2.54224 2.48829C3.75619 1.3001 5.30287 0.490957 6.98668 0.16319C8.67049 -0.164577 10.4158 0.00375464 12.0018 0.646897C13.5879 1.29004 14.9435 2.3791 15.8971 3.77635C16.8508 5.1736 17.3597 6.81628 17.3595 8.49663V16.9911Z" fill="#FB8C00"/>
<path d="M20.7239 16.9911V8.49663C20.7237 6.81637 21.2326 5.17378 22.1861 3.77658C23.1397 2.37938 24.4951 1.29031 26.081 0.647106C27.667 0.00389959 29.4122 -0.16456 31.0959 0.16303C32.7797 0.49062 34.3263 1.29955 35.5404 2.48752C36.7544 3.67548 37.5813 5.18914 37.9164 6.83707C38.2515 8.485 38.0799 10.1932 37.4231 11.7456C36.7664 13.2981 35.6541 14.625 34.2268 15.5587C32.7996 16.4924 31.1215 16.9909 29.4048 16.9911H20.7239Z" fill="black"/>
<path d="M17.3595 20.8252V29.3196C17.3597 31 16.8508 32.6427 15.8971 34.0399C14.9435 35.4372 13.5879 36.5262 12.0018 37.1694C10.4158 37.8125 8.67049 37.9808 6.98668 37.6531C5.30287 37.3253 3.75619 36.5162 2.54224 35.328C1.32829 34.1398 0.501602 32.6259 0.166728 30.9779C-0.168146 29.3298 0.00383605 27.6215 0.660923 26.0691C1.31801 24.5167 2.43069 23.1899 3.85823 22.2565C5.28578 21.3231 6.96407 20.825 8.68085 20.8252H17.3595Z" fill="black"/>
<path d="M20.7239 20.8252H29.4048C31.7068 20.8252 33.9145 21.7203 35.5423 23.3135C37.1701 24.9067 38.0845 27.0676 38.0845 29.3207C38.0845 31.5739 37.1701 33.7348 35.5423 35.328C33.9145 36.9212 31.7068 37.8163 29.4048 37.8163C27.1029 37.8157 24.8954 36.9203 23.2679 35.3269C21.6405 33.7335 20.7262 31.5727 20.7262 29.3196L20.7239 20.8252Z" fill="#FB8C00"/>
</svg>
