<svg width="118" height="118" viewBox="0 0 118 118" fill="none" xmlns="http://www.w3.org/2000/svg">
<path d="M23.9998 70.8853H70.6665V59.2186H23.9998V70.8853ZM23.9998 53.3853H93.9998V41.7186H23.9998V53.3853ZM23.9998 35.8853H93.9998V24.2186H23.9998V35.8853ZM0.666504 117.552V12.5519C0.666504 9.3436 1.80984 6.5961 4.0965 4.30943C6.38317 2.02276 9.12873 0.881375 12.3332 0.885264H105.667C108.875 0.885264 111.622 2.0286 113.909 4.31526C116.196 6.60193 117.337 9.34749 117.333 12.5519V82.5519C117.333 85.7603 116.19 88.5078 113.903 90.7944C111.617 93.0811 108.871 94.2225 105.667 94.2186H23.9998L0.666504 117.552Z" fill="#FB8C00"/>
</svg>
