<svg width="118" height="106" viewBox="0 0 118 106" fill="none" xmlns="http://www.w3.org/2000/svg">
<path d="M64.8334 105.5L76.5 99.6667L88.1667 105.5V64.6667H64.8334M88.1667 35.5V23.8333L76.5 29.6667L64.8334 23.8333V35.5L53.1667 41.3333L64.8334 47.1667V58.8333L76.5 53L88.1667 58.8333V47.1667L99.8334 41.3333M105.667 0.5H12.3334C9.23916 0.5 6.2717 1.72916 4.08377 3.91709C1.89585 6.10501 0.666687 9.07247 0.666687 12.1667V70.5C0.666687 73.5942 1.89585 76.5617 4.08377 78.7496C6.2717 80.9375 9.23916 82.1667 12.3334 82.1667H53.1667V70.5H12.3334V12.1667H105.667V70.5H99.8334V82.1667H105.667C108.761 82.1667 111.728 80.9375 113.916 78.7496C116.104 76.5617 117.333 73.5942 117.333 70.5V12.1667C117.333 9.07247 116.104 6.10501 113.916 3.91709C111.728 1.72916 108.761 0.5 105.667 0.5ZM53.1667 29.6667H18.1667V18H53.1667M41.5 47.1667H18.1667V35.5H41.5M53.1667 64.6667H18.1667V53H53.1667V64.6667Z" fill="#FFA629"/>
</svg>
