<svg width="130" height="83" viewBox="0 0 130 83" fill="none" xmlns="http://www.w3.org/2000/svg">
<path d="M88.3335 35.3853C98.0168 35.3853 105.775 27.5686 105.775 17.8853C105.775 8.20192 98.0168 0.385254 88.3335 0.385254C78.6502 0.385254 70.8335 8.20192 70.8335 17.8853C70.8335 27.5686 78.6502 35.3853 88.3335 35.3853ZM41.6668 35.3853C51.3502 35.3853 59.1085 27.5686 59.1085 17.8853C59.1085 8.20192 51.3502 0.385254 41.6668 0.385254C31.9835 0.385254 24.1668 8.20192 24.1668 17.8853C24.1668 27.5686 31.9835 35.3853 41.6668 35.3853ZM41.6668 47.0519C28.0752 47.0519 0.833496 53.8769 0.833496 67.4686V82.0519H82.5002V67.4686C82.5002 53.8769 55.2585 47.0519 41.6668 47.0519ZM88.3335 47.0519C86.6418 47.0519 84.7168 47.1686 82.6752 47.3436C89.4418 52.2436 94.1668 58.8353 94.1668 67.4686V82.0519H129.167V67.4686C129.167 53.8769 101.925 47.0519 88.3335 47.0519Z" fill="#FB8C00"/>
</svg>
